<svg xmlns="http://www.w3.org/2000/svg" width="176" height="47" viewBox="0 0 176 47" fill="none"><path d="M31.6998 18.2009H47.0042V2.80264C47.0042 1.2554 45.7557 0 44.2185 0H28.9141V15.3983C28.9141 16.9455 30.158 18.2009 31.6952 18.2009H31.6998Z" fill="#00AEEA"></path><path d="M10.8504 38.8858C9.31319 38.8858 8.06471 37.6295 8.06471 36.0832V20.6904C3.61069 20.6904 0 24.3223 0 28.8037V44.1548C0 45.7252 1.26681 47 2.82787 47H19.4321C23.1409 47 26.1503 43.9769 26.1503 40.2413V38.8867H10.8504V38.8858Z" fill="white"></path><path d="M31.1826 19.2414C29.3613 19.2414 27.8845 17.7553 27.8845 15.9227V11.8684H16.838C12.3839 11.8684 8.77783 15.5012 8.77783 19.978H24.0823C25.6195 19.978 26.868 21.2343 26.868 22.7806V38.178H28.2145C31.9233 38.178 34.9327 35.1502 34.9327 31.4192V19.2368H31.1872L31.1826 19.2414Z" fill="white"></path><path d="M56.3311 6.00068H66.7736C66.9111 6.00068 67.0229 6.11371 67.0229 6.25269V8.02507C67.0229 8.16404 66.9111 8.27707 66.7736 8.27707H63.0639C62.9264 8.27707 62.8145 8.3901 62.8145 8.52908V20.6467C62.8145 20.7856 62.7027 20.8987 62.5652 20.8987H60.5614C60.4239 20.8987 60.3121 20.7856 60.3121 20.6467V8.52815C60.3121 8.38918 60.2002 8.27615 60.0627 8.27615H56.3301C56.1926 8.27615 56.0808 8.16311 56.0808 8.02414V6.25176C56.0808 6.11279 56.1926 5.99976 56.3301 5.99976L56.3311 6.00068Z" fill="white"></path><path d="M76.4801 16.1849H69.3962C69.2348 16.1849 69.1129 16.3378 69.1514 16.4962C69.3192 17.1864 69.6547 17.7683 70.157 18.2426C70.7326 18.7865 71.5136 19.0589 72.4999 19.0589C73.2424 19.0589 73.8566 18.9366 74.3424 18.6911C74.7329 18.4937 75.0849 18.2908 75.3975 18.0833C75.5176 18.0036 75.6789 18.0425 75.7513 18.1694L76.459 19.4119C76.5241 19.5258 76.492 19.6704 76.3856 19.7463C76.206 19.8733 76.0107 20.0048 75.799 20.1401C75.5112 20.3245 75.1922 20.4968 74.8438 20.6571C74.4946 20.8183 74.105 20.948 73.6724 21.0481C73.2406 21.1472 72.7658 21.1972 72.2506 21.1972C71.4165 21.1972 70.6621 21.0555 69.9874 20.772C69.3128 20.4885 68.7325 20.0901 68.2476 19.5768C67.7618 19.0635 67.3869 18.4539 67.122 17.7488C66.8561 17.0438 66.7241 16.2701 66.7241 15.427C66.7241 14.6302 66.8451 13.8909 67.088 13.2081C67.33 12.5262 67.6793 11.936 68.1339 11.4376C68.5886 10.94 69.1349 10.549 69.772 10.2646C70.4091 9.98111 71.1213 9.83936 71.9105 9.83936C72.7594 9.83936 73.4918 9.99686 74.1059 10.3109C74.7201 10.625 75.2206 11.0429 75.6074 11.5636C75.9942 12.0852 76.2784 12.6791 76.4608 13.3452C76.6432 14.0123 76.734 14.6979 76.734 15.4029V15.931C76.734 16.0709 76.6221 16.1849 76.4828 16.1849H76.4801ZM71.8904 11.7479C71.147 11.7479 70.5401 11.9934 70.0708 12.4836C69.6657 12.906 69.3797 13.436 69.211 14.0743C69.1688 14.2346 69.2908 14.3921 69.4548 14.3921H74.1426C74.2929 14.3921 74.4112 14.2596 74.3928 14.1096C74.3635 13.8705 74.3103 13.6352 74.2343 13.4036C74.1279 13.0821 73.973 12.7986 73.7677 12.5531C73.5633 12.3085 73.3048 12.113 72.994 11.9666C72.6833 11.8211 72.3148 11.7479 71.8904 11.7479Z" fill="white"></path><path d="M79.305 39.045H72.2211C72.0598 39.045 71.9379 39.1979 71.9764 39.3563C72.1441 40.0465 72.4796 40.6284 72.9819 41.1027C73.5576 41.6466 74.3386 41.919 75.3249 41.919C76.0674 41.919 76.6815 41.7967 77.1674 41.5512C77.5579 41.3538 77.9099 41.1509 78.2224 40.9434C78.3425 40.8637 78.5039 40.9026 78.5763 41.0295L79.2839 42.272C79.349 42.3859 79.3169 42.5305 79.2106 42.6064C79.0309 42.7334 78.8357 42.8649 78.6239 43.0002C78.3361 43.1846 78.0171 43.3569 77.6688 43.5172C77.3195 43.6784 76.93 43.8081 76.4973 43.9082C76.0656 44.0073 75.5907 44.0573 75.0756 44.0573C74.2414 44.0573 73.487 43.9156 72.8124 43.6321C72.1377 43.3486 71.5575 42.9502 71.0725 42.4369C70.5867 41.9236 70.2118 41.314 69.9469 40.6089C69.6811 39.9039 69.5491 39.1302 69.5491 38.2871C69.5491 37.4904 69.6701 36.751 69.913 36.0682C70.155 35.3863 70.5042 34.7961 70.9589 34.2977C71.4135 33.8001 71.9599 33.4092 72.5969 33.1247C73.234 32.8412 73.9463 32.6995 74.7355 32.6995C75.5843 32.6995 76.3167 32.857 76.9309 33.171C77.545 33.4851 78.0455 33.903 78.4324 34.4237C78.8192 34.9453 79.1033 35.5392 79.2858 36.2053C79.4682 36.8724 79.5589 37.558 79.5589 38.263V38.7911C79.5589 38.931 79.4471 39.045 79.3078 39.045H79.305ZM74.7153 34.608C73.9719 34.608 73.3651 34.8536 72.8958 35.3437C72.4906 35.7662 72.2046 36.2961 72.036 36.9345C71.9938 37.0947 72.1157 37.2522 72.2798 37.2522H76.9675C77.1179 37.2522 77.2361 37.1198 77.2178 36.9697C77.1885 36.7306 77.1353 36.4953 77.0592 36.2637C76.9529 35.9422 76.798 35.6587 76.5926 35.4132C76.3882 35.1686 76.1297 34.9731 75.819 34.8267C75.5082 34.6812 75.1397 34.608 74.7153 34.608Z" fill="white"></path><path d="M175.746 39.045H168.662C168.501 39.045 168.379 39.1979 168.418 39.3563C168.585 40.0465 168.921 40.6284 169.423 41.1027C169.999 41.6466 170.78 41.919 171.766 41.919C172.509 41.919 173.123 41.7967 173.609 41.5512C173.999 41.3538 174.351 41.1509 174.664 40.9434C174.784 40.8637 174.945 40.9026 175.017 41.0295L175.725 42.272C175.79 42.3859 175.758 42.5305 175.652 42.6064C175.472 42.7334 175.277 42.8649 175.065 43.0002C174.777 43.1846 174.458 43.3569 174.11 43.5172C173.761 43.6784 173.371 43.8081 172.938 43.9082C172.507 44.0073 172.032 44.0573 171.517 44.0573C170.683 44.0573 169.928 43.9156 169.254 43.6321C168.579 43.3486 167.999 42.9502 167.514 42.4369C167.028 41.9236 166.653 41.314 166.388 40.6089C166.122 39.9039 165.99 39.1302 165.99 38.2871C165.99 37.4904 166.111 36.751 166.354 36.0682C166.596 35.3863 166.945 34.7961 167.4 34.2977C167.855 33.8001 168.401 33.4092 169.038 33.1247C169.675 32.8412 170.387 32.6995 171.177 32.6995C172.025 32.6995 172.758 32.857 173.372 33.171C173.986 33.4851 174.487 33.903 174.874 34.4237C175.26 34.9453 175.545 35.5392 175.727 36.2053C175.909 36.8724 176 37.558 176 38.263V38.7911C176 38.931 175.888 39.045 175.749 39.045H175.746ZM171.156 34.608C170.413 34.608 169.806 34.8536 169.337 35.3437C168.932 35.7662 168.646 36.2961 168.477 36.9345C168.435 37.0947 168.557 37.2522 168.721 37.2522H173.409C173.559 37.2522 173.677 37.1198 173.659 36.9697C173.63 36.7306 173.576 36.4953 173.5 36.2637C173.394 35.9422 173.239 35.6587 173.034 35.4132C172.829 35.1686 172.571 34.9731 172.26 34.8267C171.949 34.6812 171.581 34.608 171.156 34.608Z" fill="#00AEEA"></path><path d="M88.1765 19.3274C88.2545 19.4367 88.2343 19.5878 88.1307 19.673C87.9685 19.8073 87.7943 19.9435 87.6073 20.0825C87.3488 20.2743 87.0536 20.454 86.72 20.6226C86.3863 20.7913 86.0114 20.9293 85.5943 21.0368C85.1773 21.1443 84.7034 21.198 84.1726 21.198C83.354 21.198 82.6033 21.0562 81.9204 20.7727C81.2384 20.4892 80.6499 20.0945 80.1577 19.5887C79.6645 19.0828 79.2823 18.4778 79.0091 17.7728C78.7359 17.0677 78.5994 16.2941 78.5994 15.451C78.5994 14.6848 78.7277 13.9602 78.9862 13.2783C79.2438 12.5965 79.6113 12.0026 80.0898 11.4967C80.5674 10.9908 81.1477 10.5887 81.8296 10.2895C82.5116 9.99023 83.278 9.84106 84.1268 9.84106C85.0214 9.84106 85.7722 9.98282 86.379 10.2663C86.8832 10.5026 87.3149 10.7361 87.6724 10.9668C87.7888 11.0418 87.8227 11.1974 87.7494 11.3151L86.8877 12.7011C86.8181 12.8123 86.6769 12.8522 86.5614 12.7919C86.3405 12.6761 86.0783 12.5436 85.7749 12.3935C85.3734 12.1944 84.8463 12.0943 84.1937 12.0943C83.7839 12.0943 83.3935 12.1712 83.0222 12.3241C82.6501 12.4779 82.3173 12.7002 82.0212 12.9911C81.7251 13.2821 81.4905 13.635 81.3163 14.0483C81.1422 14.4624 81.0551 14.9294 81.0551 15.451C81.0551 16.0032 81.1458 16.4933 81.3282 16.9222C81.5097 17.3512 81.7526 17.719 82.0561 18.0257C82.3595 18.3324 82.7115 18.5658 83.1139 18.727C83.5154 18.8883 83.9444 18.9689 84.399 18.9689C84.7171 18.9689 85.0132 18.9309 85.2863 18.854C85.5595 18.7771 85.8097 18.6816 86.0371 18.5668C86.2644 18.4519 86.4688 18.3296 86.6512 18.1989C86.7493 18.1285 86.841 18.0637 86.9262 18.0044C87.0381 17.9266 87.1911 17.9534 87.2709 18.0646L88.1747 19.3293L88.1765 19.3274Z" fill="white"></path><path d="M90.7687 10.1384H92.7716C92.9091 10.1384 93.0209 10.2514 93.0209 10.3904V10.9973C93.0209 11.2261 93.3005 11.3391 93.4527 11.1696C93.4894 11.1279 93.5279 11.0871 93.5673 11.0464C93.779 10.824 94.0183 10.6248 94.2841 10.4488C94.549 10.2727 94.8524 10.131 95.1943 10.0235C95.5353 9.91697 95.9258 9.8623 96.3658 9.8623C97.5034 9.8623 98.4246 10.1921 99.1295 10.8509C99.8344 11.5096 100.187 12.4139 100.187 13.5636V20.6457C100.187 20.7847 100.076 20.8977 99.938 20.8977H97.9351C97.7976 20.8977 97.6858 20.7847 97.6858 20.6457V14.277C97.6858 13.5266 97.4887 12.967 97.0946 12.5992C96.7004 12.2313 96.1843 12.047 95.5482 12.047C95.2301 12.047 94.923 12.1044 94.6269 12.2193C94.3309 12.3342 94.0659 12.5149 93.8304 12.7594C93.5948 13.005 93.4059 13.319 93.262 13.7017C93.1181 14.0853 93.0384 14.5374 93.0228 15.0581V20.6457C93.0228 20.7847 92.911 20.8977 92.7735 20.8977H90.7706C90.6331 20.8977 90.5212 20.7847 90.5212 20.6457V10.3904C90.5212 10.2514 90.6331 10.1384 90.7706 10.1384H90.7687Z" fill="white"></path><path d="M108.102 21.2434C107.268 21.2434 106.517 21.0979 105.85 20.807C105.182 20.5161 104.613 20.1094 104.144 19.5887C103.673 19.068 103.313 18.4621 103.063 17.7727C102.813 17.0834 102.688 16.3321 102.688 15.5195C102.688 14.707 102.813 13.976 103.063 13.2783C103.313 12.5807 103.673 11.972 104.144 11.4504C104.614 10.9297 105.182 10.523 105.85 10.232C106.517 9.94111 107.268 9.79565 108.102 9.79565C108.936 9.79565 109.686 9.94111 110.354 10.232C111.021 10.523 111.59 10.9297 112.06 11.4504C112.53 11.972 112.894 12.5807 113.152 13.2783C113.409 13.976 113.538 14.7227 113.538 15.5195C113.538 16.3163 113.409 17.0825 113.152 17.7727C112.893 18.4621 112.529 19.068 112.06 19.5887C111.59 20.1103 111.021 20.5161 110.354 20.807C109.687 21.0979 108.936 21.2434 108.102 21.2434ZM108.102 19.0133C108.602 19.0133 109.038 18.9179 109.41 18.7261C109.781 18.5343 110.092 18.2777 110.342 17.9562C110.592 17.6347 110.777 17.2632 110.899 16.8416C111.02 16.4201 111.081 15.9791 111.081 15.5195C111.081 15.06 111.02 14.6153 110.899 14.1863C110.777 13.7573 110.592 13.3821 110.342 13.0597C110.092 12.7382 109.781 12.4816 109.41 12.2898C109.038 12.098 108.602 12.0026 108.102 12.0026C107.601 12.0026 107.165 12.0989 106.794 12.2898C106.422 12.4816 106.112 12.7382 105.861 13.0597C105.611 13.3812 105.421 13.7573 105.293 14.1863C105.164 14.6153 105.1 15.06 105.1 15.5195C105.1 15.9791 105.164 16.4201 105.293 16.8416C105.421 17.2632 105.611 17.6347 105.861 17.9562C106.112 18.2777 106.422 18.5353 106.794 18.7261C107.165 18.9179 107.601 19.0133 108.102 19.0133Z" fill="white"></path><path d="M116.313 4.34521H118.337C118.476 4.34521 118.587 4.45825 118.587 4.59815V20.645C118.587 20.7849 118.476 20.8979 118.337 20.8979H116.313C116.175 20.8979 116.063 20.7849 116.063 20.645V4.59815C116.063 4.45825 116.175 4.34521 116.313 4.34521Z" fill="white"></path><path d="M126.549 21.2434C125.714 21.2434 124.964 21.098 124.296 20.807C123.629 20.5161 123.06 20.1094 122.59 19.5887C122.12 19.068 121.76 18.4621 121.51 17.7728C121.259 17.0835 121.135 16.3321 121.135 15.5196C121.135 14.707 121.259 13.976 121.51 13.2784C121.76 12.5807 122.12 11.972 122.59 11.4504C123.061 10.9297 123.629 10.523 124.296 10.2321C124.964 9.94115 125.714 9.79569 126.549 9.79569C127.383 9.79569 128.132 9.94115 128.801 10.2321C129.468 10.523 130.036 10.9297 130.507 11.4504C130.977 11.972 131.341 12.5807 131.598 13.2784C131.856 13.976 131.985 14.7228 131.985 15.5196C131.985 16.3163 131.856 17.0825 131.598 17.7728C131.34 18.4621 130.976 19.068 130.507 19.5887C130.036 20.1103 129.468 20.5161 128.801 20.807C128.133 21.098 127.383 21.2434 126.549 21.2434ZM126.549 19.0134C127.049 19.0134 127.484 18.9179 127.857 18.7261C128.228 18.5344 128.539 18.2777 128.789 17.9562C129.039 17.6347 129.224 17.2632 129.346 16.8417C129.467 16.4201 129.528 15.9791 129.528 15.5196C129.528 15.06 129.467 14.6153 129.346 14.1863C129.224 13.7574 129.039 13.3821 128.789 13.0597C128.539 12.7382 128.228 12.4816 127.857 12.2898C127.484 12.098 127.049 12.0026 126.549 12.0026C126.048 12.0026 125.612 12.0989 125.24 12.2898C124.868 12.4816 124.558 12.7382 124.308 13.0597C124.058 13.3812 123.868 13.7574 123.74 14.1863C123.611 14.6153 123.546 15.06 123.546 15.5196C123.546 15.9791 123.611 16.4201 123.74 16.8417C123.868 17.2632 124.058 17.6347 124.308 17.9562C124.558 18.2777 124.869 18.5353 125.24 18.7261C125.612 18.9179 126.048 19.0134 126.549 19.0134ZM128.326 3.74292L129.588 4.69072C129.705 4.77874 129.728 4.94643 129.639 5.06317L126.912 8.62182C126.824 8.73578 126.661 8.75802 126.548 8.67L125.345 7.74536C125.23 7.65735 125.208 7.49336 125.295 7.37755L127.962 3.79573C128.048 3.67992 128.21 3.65676 128.326 3.74292Z" fill="white"></path><path d="M135.259 22.7878C135.332 22.6637 135.491 22.6247 135.61 22.7044C135.961 22.937 136.37 23.151 136.84 23.3474C137.408 23.5846 138.064 23.7041 138.807 23.7041C139.231 23.7041 139.629 23.6356 140.001 23.4975C140.372 23.3595 140.695 23.1603 140.968 22.8999C141.241 22.6386 141.458 22.3134 141.616 21.9225C141.776 21.5315 141.856 21.0831 141.856 20.5772V19.6711C141.856 19.4506 141.599 19.3385 141.436 19.4858C141.179 19.7174 140.89 19.9314 140.57 20.1297C140.063 20.4438 139.437 20.6013 138.694 20.6013C137.952 20.6013 137.303 20.4753 136.704 20.2224C136.105 19.9694 135.589 19.6099 135.158 19.1421C134.726 18.6751 134.391 18.1072 134.157 17.441C133.921 16.774 133.804 16.0272 133.804 15.1998C133.804 14.4336 133.925 13.7249 134.168 13.0735C134.41 12.4222 134.748 11.8626 135.18 11.3957C135.611 10.9287 136.135 10.5646 136.749 10.3033C137.363 10.043 138.049 9.91235 138.808 9.91235C139.567 9.91235 140.146 10.0615 140.639 10.3608C140.934 10.5396 141.196 10.7286 141.423 10.9269C141.584 11.0677 141.834 10.9491 141.834 10.7332V10.3951C141.834 10.2552 141.945 10.1421 142.084 10.1421H144.086C144.224 10.1421 144.336 10.2552 144.336 10.3951V20.4642C144.336 21.2304 144.199 21.9428 143.926 22.6025C143.653 23.2612 143.278 23.8329 142.801 24.3156C142.323 24.7983 141.758 25.1782 141.106 25.4533C140.453 25.7294 139.741 25.8675 138.967 25.8675C137.966 25.8675 137.068 25.7294 136.272 25.4533C135.566 25.2087 134.977 24.9039 134.504 24.5389C134.402 24.4601 134.372 24.3184 134.437 24.2072L135.26 22.7906V22.7878H135.259ZM139.103 18.4611C140.028 18.4611 140.736 18.1544 141.23 17.5411C141.722 16.9287 141.968 16.1615 141.968 15.2425C141.968 14.6903 141.889 14.2122 141.729 13.8055C141.57 13.3997 141.354 13.0661 141.081 12.8058C140.808 12.5454 140.501 12.35 140.16 12.2193C139.819 12.0896 139.466 12.0238 139.102 12.0238C138.647 12.0238 138.241 12.1081 137.886 12.2768C137.529 12.4454 137.229 12.6714 136.987 12.955C136.744 13.2385 136.558 13.5757 136.43 13.9667C136.301 14.3577 136.237 14.7829 136.237 15.2425C136.237 16.193 136.49 16.9667 136.998 17.5642C137.506 18.1618 138.207 18.4611 139.102 18.4611H139.103Z" fill="white"></path><path d="M149.089 8.20767C148.634 8.20767 148.244 8.0511 147.918 7.73609C147.591 7.42201 147.429 7.01157 147.429 6.50571C147.429 5.99984 147.591 5.6135 147.918 5.29849C148.244 4.98441 148.634 4.8269 149.089 4.8269C149.544 4.8269 149.92 4.98441 150.26 5.29849C150.601 5.61257 150.772 6.01467 150.772 6.50571C150.772 6.99675 150.601 7.42201 150.26 7.73609C149.92 8.05017 149.529 8.20767 149.089 8.20767ZM148.092 10.1385H150.108C150.249 10.1385 150.362 10.2534 150.362 10.3951V20.6412C150.362 20.7829 150.249 20.8978 150.108 20.8978H148.092C147.951 20.8978 147.838 20.7829 147.838 20.6412V10.3951C147.838 10.2534 147.951 10.1385 148.092 10.1385Z" fill="white"></path><path d="M162.487 19.3283C162.565 19.4367 162.544 19.5877 162.442 19.672C162.279 19.8064 162.104 19.9435 161.918 20.0815C161.66 20.2733 161.365 20.4531 161.031 20.6217C160.697 20.7903 160.322 20.9283 159.905 21.0358C159.488 21.1433 159.014 21.197 158.484 21.197C157.665 21.197 156.914 21.0553 156.231 20.7718C155.549 20.4883 154.961 20.0936 154.469 19.5877C153.976 19.0818 153.593 18.4768 153.32 17.7718C153.047 17.0667 152.91 16.2931 152.91 15.45C152.91 14.6838 153.039 13.9593 153.297 13.2774C153.555 12.5955 153.922 12.0016 154.4 11.4957C154.878 10.9899 155.458 10.5878 156.14 10.2885C156.822 9.98925 157.588 9.84009 158.437 9.84009C159.332 9.84009 160.082 9.98184 160.689 10.2653C161.194 10.5016 161.626 10.7351 161.983 10.9658C162.1 11.0408 162.134 11.1955 162.06 11.3132L161.198 12.7002C161.129 12.8113 160.988 12.8503 160.872 12.79C160.652 12.6742 160.388 12.5417 160.086 12.3907C159.684 12.1915 159.157 12.0915 158.505 12.0915C158.095 12.0915 157.704 12.1684 157.333 12.3212C156.961 12.475 156.628 12.6974 156.332 12.9883C156.036 13.2792 155.802 13.6322 155.627 14.0454C155.453 14.4596 155.366 14.9265 155.366 15.4481C155.366 16.0003 155.457 16.4904 155.639 16.9194C155.821 17.3484 156.064 17.7162 156.367 18.0229C156.671 18.3295 157.023 18.563 157.425 18.7242C157.826 18.8854 158.255 18.966 158.71 18.966C159.028 18.966 159.324 18.928 159.597 18.8511C159.871 18.7742 160.121 18.6788 160.348 18.5639C160.575 18.449 160.78 18.3268 160.962 18.1961C161.061 18.1257 161.153 18.0609 161.238 18.0016C161.35 17.9237 161.502 17.9506 161.582 18.0618L162.487 19.3283Z" fill="white"></path><path d="M169.219 21.2434C168.385 21.2434 167.635 21.0979 166.967 20.807C166.3 20.5161 165.731 20.1094 165.261 19.5887C164.791 19.068 164.431 18.4621 164.181 17.7727C163.93 17.0834 163.806 16.3321 163.806 15.5195C163.806 14.707 163.93 13.976 164.181 13.2783C164.431 12.5807 164.791 11.972 165.261 11.4504C165.732 10.9297 166.3 10.523 166.967 10.232C167.635 9.94111 168.385 9.79565 169.219 9.79565C170.054 9.79565 170.803 9.94111 171.472 10.232C172.139 10.523 172.707 10.9297 173.178 11.4504C173.648 11.972 174.012 12.5807 174.269 13.2783C174.527 13.976 174.656 14.7227 174.656 15.5195C174.656 16.3163 174.527 17.0825 174.269 17.7727C174.011 18.4621 173.647 19.068 173.178 19.5887C172.707 20.1103 172.139 20.5161 171.472 20.807C170.804 21.0979 170.054 21.2434 169.219 21.2434ZM169.219 19.0133C169.72 19.0133 170.155 18.9179 170.527 18.7261C170.899 18.5343 171.209 18.2777 171.46 17.9562C171.71 17.6347 171.895 17.2632 172.017 16.8416C172.138 16.4201 172.199 15.9791 172.199 15.5195C172.199 15.06 172.139 14.6153 172.017 14.1863C171.895 13.7573 171.71 13.3821 171.46 13.0597C171.209 12.7382 170.899 12.4816 170.527 12.2898C170.155 12.098 169.72 12.0026 169.219 12.0026C168.719 12.0026 168.283 12.0989 167.911 12.2898C167.539 12.4816 167.229 12.7382 166.979 13.0597C166.729 13.3812 166.539 13.7573 166.411 14.1863C166.282 14.6153 166.217 15.06 166.217 15.5195C166.217 15.9791 166.282 16.4201 166.411 16.8416C166.539 17.2632 166.729 17.6347 166.979 17.9562C167.229 18.2777 167.54 18.5353 167.911 18.7261C168.283 18.9179 168.719 19.0133 169.219 19.0133Z" fill="white"></path><path d="M64.4754 43.1615C64.4754 42.9457 64.2243 42.8289 64.0629 42.9707C63.7769 43.2227 63.4671 43.4506 63.1334 43.6544C62.633 43.9611 62.0115 44.114 61.2681 44.114C60.5705 44.114 59.9297 43.9908 59.3458 43.7462C58.7619 43.5016 58.2541 43.1365 57.8214 42.6538C57.3897 42.1711 57.0515 41.581 56.8095 40.8833C56.5666 40.1857 56.4456 39.3778 56.4456 38.4578C56.4456 37.6304 56.5666 36.8753 56.8095 36.1934C57.0515 35.5115 57.3897 34.925 57.8214 34.4349C58.2532 33.9448 58.7656 33.5649 59.3568 33.2972C59.9481 33.0294 60.5925 32.8951 61.2901 32.8951C62.0326 32.8951 62.6586 33.0257 63.1664 33.2861C63.4974 33.4556 63.798 33.6483 64.0675 33.8633C64.2325 33.9948 64.4745 33.88 64.4745 33.6669V27.5613C64.4745 27.4214 64.5863 27.3083 64.7248 27.3083H66.7496C66.8881 27.3083 66.9999 27.4214 66.9999 27.5613V43.6081C66.9999 43.748 66.8881 43.8611 66.7496 43.8611H64.7248C64.5863 43.8611 64.4745 43.748 64.4745 43.6081V43.1606L64.4754 43.1615ZM61.7456 41.9534C62.1856 41.9534 62.5835 41.8654 62.94 41.6894C63.2957 41.5133 63.6 41.2715 63.8503 40.9648C64.1005 40.6582 64.2903 40.2941 64.4186 39.8725C64.5469 39.4509 64.612 38.9951 64.612 38.505C64.612 37.8926 64.5323 37.3636 64.3728 36.9188C64.2133 36.4741 63.9979 36.1109 63.7247 35.8265C63.4515 35.543 63.1408 35.3364 62.7925 35.2058C62.4432 35.0761 62.0793 35.0103 61.7007 35.0103C60.8061 35.0103 60.1122 35.3401 59.6199 35.9988C59.1268 36.6576 58.8811 37.4933 58.8811 38.505C58.8811 39.5167 59.135 40.3635 59.6428 40.9991C60.1507 41.6356 60.8519 41.9534 61.7466 41.9534H61.7456Z" fill="white"></path><path d="M87.8602 40.1142C87.9436 39.9919 88.1113 39.9678 88.2241 40.0623C88.4138 40.2208 88.621 40.3838 88.8465 40.5506C89.1572 40.7804 89.4909 40.9953 89.8475 41.1945C90.204 41.3937 90.5716 41.5586 90.9511 41.6883C91.3297 41.819 91.7248 41.8838 92.1336 41.8838C92.8156 41.8838 93.339 41.7189 93.7029 41.39C94.0668 41.0602 94.2492 40.6127 94.2492 40.0447C94.2492 39.5546 94.0751 39.1405 93.7258 38.8032C93.3766 38.466 92.899 38.1445 92.2931 37.8378L90.8145 37.1254C90.435 36.9567 90.0409 36.7501 89.632 36.5046C89.2223 36.26 88.8474 35.9645 88.5064 35.6198C88.1654 35.2751 87.8849 34.8693 87.6649 34.4015C87.4449 33.9345 87.3349 33.3934 87.3349 32.781C87.3349 32.214 87.4376 31.6813 87.642 31.1828C87.8464 30.6853 88.1461 30.2517 88.5403 29.8839C88.9345 29.5161 89.424 29.2252 90.0079 29.0102C90.5918 28.7962 91.2628 28.6887 92.0208 28.6887C92.976 28.6887 93.8028 28.8722 94.5004 29.2409C95.1274 29.5717 95.7049 29.9515 96.2338 30.3814C96.3346 30.4639 96.3548 30.6121 96.2814 30.7205L95.3795 32.0528C95.2979 32.1733 95.1347 32.1983 95.0201 32.1103C94.9037 32.0204 94.7763 31.9268 94.637 31.8277C94.4096 31.6665 94.1557 31.5173 93.8752 31.3793C93.5947 31.2412 93.295 31.1263 92.9769 31.0346C92.6588 30.9429 92.3325 30.8966 91.9988 30.8966C91.7257 30.8966 91.4644 30.9355 91.2142 31.0114C90.9639 31.0883 90.7439 31.1995 90.5542 31.345C90.3644 31.4904 90.2095 31.6711 90.0876 31.8851C89.9657 32.1001 89.9061 32.3447 89.9061 32.6208C89.9061 33.096 90.061 33.4907 90.3727 33.8048C90.6834 34.1189 91.1876 34.4524 91.8852 34.8045L93.614 35.6782C94.0237 35.8931 94.4179 36.1266 94.7965 36.3795C95.175 36.6325 95.5133 36.928 95.8084 37.2643C96.1045 37.6016 96.3429 37.9814 96.5253 38.4021C96.7077 38.8236 96.7984 39.3026 96.7984 39.839C96.7984 40.4524 96.6884 41.0231 96.4684 41.5521C96.2484 42.0812 95.934 42.537 95.5243 42.9196C95.1145 43.3032 94.6104 43.6015 94.0118 43.8165C93.4123 44.0305 92.7413 44.138 91.9988 44.138C91.4681 44.138 90.9557 44.0648 90.4634 43.9193C89.9703 43.7739 89.5 43.5858 89.0536 43.356C88.6063 43.1262 88.1929 42.8659 87.8143 42.5741C87.5027 42.335 87.2112 42.1006 86.9408 41.8708C86.8427 41.7875 86.8234 41.642 86.8968 41.5345L87.8629 40.1142H87.8602Z" fill="#00AEEA"></path><path d="M104.257 44.2055C103.423 44.2055 102.672 44.0601 102.005 43.7692C101.338 43.4782 100.768 43.0715 100.299 42.5508C99.8289 42.0301 99.4687 41.4242 99.2184 40.7349C98.9682 40.0456 98.8435 39.2942 98.8435 38.4817C98.8435 37.6691 98.9682 36.9381 99.2184 36.2405C99.4687 35.5428 99.8289 34.9341 100.299 34.4125C100.769 33.8918 101.338 33.4851 102.005 33.1942C102.672 32.9033 103.423 32.7578 104.257 32.7578C105.091 32.7578 105.841 32.9033 106.509 33.1942C107.177 33.4851 107.745 33.8918 108.215 34.4125C108.686 34.9341 109.05 35.5428 109.307 36.2405C109.565 36.9381 109.694 37.6849 109.694 38.4817C109.694 39.2785 109.565 40.0447 109.307 40.7349C109.049 41.4242 108.685 42.0301 108.215 42.5508C107.745 43.0724 107.177 43.4782 106.509 43.7692C105.842 44.0601 105.091 44.2055 104.257 44.2055ZM104.257 41.9755C104.758 41.9755 105.193 41.88 105.565 41.6883C105.937 41.4965 106.247 41.2398 106.498 40.9184C106.748 40.5969 106.933 40.2253 107.055 39.8038C107.176 39.3822 107.236 38.9412 107.236 38.4817C107.236 38.0221 107.176 37.5774 107.055 37.1485C106.933 36.7195 106.748 36.3443 106.498 36.0218C106.247 35.7003 105.937 35.4437 105.565 35.2519C105.193 35.0601 104.758 34.9647 104.257 34.9647C103.757 34.9647 103.32 35.0611 102.949 35.2519C102.577 35.4437 102.267 35.7003 102.017 36.0218C101.767 36.3433 101.577 36.7195 101.449 37.1485C101.319 37.5774 101.255 38.0221 101.255 38.4817C101.255 38.9412 101.319 39.3822 101.449 39.8038C101.577 40.2253 101.767 40.5969 102.017 40.9184C102.267 41.2398 102.578 41.4974 102.949 41.6883C103.32 41.88 103.757 41.9755 104.257 41.9755Z" fill="#00AEEA"></path><path d="M111.084 33.1017H112.693C112.833 33.1017 112.946 32.9877 112.946 32.846V32.0205C112.946 31.346 113.056 30.7067 113.276 30.1008C113.496 29.4958 113.803 28.9667 114.198 28.5146C114.592 28.0625 115.073 27.7021 115.642 27.4343C116.211 27.1666 116.844 27.0322 117.542 27.0322C118.072 27.0322 118.482 27.0665 118.77 27.136C118.98 27.186 119.193 27.2462 119.411 27.3176C119.546 27.3611 119.621 27.5075 119.576 27.6437L119.048 29.2252C119.006 29.3503 118.877 29.4216 118.749 29.392C118.644 29.367 118.542 29.3438 118.44 29.3207C118.266 29.2827 118.019 29.2632 117.701 29.2632C116.958 29.2632 116.397 29.5273 116.018 30.0563C115.639 30.5853 115.45 31.2329 115.45 31.9992V32.8469C115.45 32.9877 115.562 33.1026 115.703 33.1026H120.019C120.159 33.1026 120.272 32.9886 120.272 32.8469V29.4494C120.272 29.3086 120.385 29.1937 120.525 29.1937H122.454C122.593 29.1937 122.707 29.3077 122.707 29.4494V32.8469C122.707 32.9877 122.82 33.1026 122.96 33.1026H126.481C126.62 33.1026 126.734 33.2166 126.734 33.3583V34.9398C126.734 35.0807 126.621 35.1955 126.481 35.1955H122.96C122.821 35.1955 122.707 35.3095 122.707 35.4513V39.5176C122.707 40.3765 122.892 40.9889 123.264 41.3567C123.635 41.7245 124.125 41.9089 124.732 41.9089C125.141 41.9089 125.513 41.8366 125.846 41.6903C126.076 41.5902 126.281 41.4911 126.461 41.3947C126.586 41.3271 126.743 41.3762 126.805 41.505L127.454 42.8335C127.511 42.9503 127.473 43.0911 127.364 43.1615C127.051 43.3653 126.678 43.572 126.244 43.7813C125.721 44.0343 125.08 44.1603 124.322 44.1603C123.655 44.1603 123.071 44.0528 122.57 43.8388C122.07 43.6248 121.649 43.3255 121.308 42.9419C120.967 42.5593 120.709 42.1146 120.534 41.6087C120.36 41.1029 120.273 40.5516 120.273 39.9531V35.4494C120.273 35.3086 120.16 35.1937 120.02 35.1937H115.704C115.564 35.1937 115.451 35.3077 115.451 35.4494V43.6053C115.451 43.7461 115.338 43.861 115.198 43.861H113.201C113.062 43.861 112.948 43.7471 112.948 43.6053V35.4494C112.948 35.3086 112.835 35.1937 112.695 35.1937H111.086C110.946 35.1937 110.833 35.0797 110.833 34.938V33.3565C110.833 33.2156 110.945 33.1007 111.086 33.1007H111.084V33.1017Z" fill="#00AEEA"></path><path d="M128.266 33.1015H130.257C130.364 33.1015 130.461 33.171 130.496 33.2738L132.391 38.9403C132.465 39.1598 132.767 39.1728 132.86 38.9606L135.331 33.2535C135.371 33.1608 135.461 33.1015 135.561 33.1015H135.848C135.947 33.1015 136.037 33.1599 136.077 33.2516L138.612 38.9653C138.705 39.1765 139.008 39.1608 139.079 38.9412L140.934 33.2757C140.968 33.1719 141.065 33.1015 141.173 33.1015H143.026C143.199 33.1015 143.32 33.2738 143.264 33.4388L139.663 43.897C139.628 43.9989 139.533 44.0675 139.426 44.0675H138.808C138.711 44.0675 138.623 44.011 138.581 43.9229L135.874 38.1611C135.784 37.9674 135.511 37.9674 135.421 38.1611L132.735 43.9211C132.694 44.01 132.605 44.0665 132.508 44.0665H131.867C131.76 44.0665 131.665 43.998 131.629 43.8961L128.029 33.4378C127.972 33.2729 128.093 33.1006 128.266 33.1006V33.1015Z" fill="#00AEEA"></path><path d="M152.364 43.1606C152.364 42.9447 152.113 42.8279 151.953 42.9697C151.666 43.2217 151.356 43.4505 151.022 43.6544C150.522 43.961 149.9 44.1139 149.157 44.1139C148.459 44.1139 147.818 43.9907 147.235 43.7461C146.651 43.5015 146.143 43.1365 145.71 42.6538C145.278 42.1711 144.94 41.5809 144.698 40.8832C144.455 40.1856 144.334 39.3777 144.334 38.4577C144.334 37.6303 144.455 36.8752 144.698 36.1933C144.94 35.5114 145.278 34.925 145.71 34.4349C146.143 33.9447 146.654 33.5649 147.246 33.2971C147.837 33.0294 148.481 32.895 149.179 32.895C149.921 32.895 150.547 33.0257 151.055 33.286C151.386 33.4565 151.687 33.6483 151.957 33.8641C152.122 33.9957 152.363 33.8808 152.363 33.6686V33.3555C152.363 33.2165 152.475 33.1035 152.613 33.1035H154.615C154.753 33.1035 154.865 33.2165 154.865 33.3555V43.6099C154.865 43.7489 154.753 43.8619 154.615 43.8619H152.613C152.475 43.8619 152.363 43.7489 152.363 43.6099V43.1615H152.364V43.1606ZM149.634 41.9533C150.074 41.9533 150.472 41.8653 150.829 41.6893C151.185 41.5132 151.489 41.2714 151.739 40.9648C151.989 40.6581 152.179 40.294 152.307 39.8724C152.436 39.4509 152.501 38.995 152.501 38.5049C152.501 37.8925 152.421 37.3635 152.261 36.9188C152.102 36.4741 151.887 36.1109 151.613 35.8264C151.34 35.5429 151.029 35.3363 150.681 35.2057C150.332 35.076 149.968 35.0102 149.589 35.0102C148.695 35.0102 148.001 35.34 147.508 35.9988C147.015 36.6575 146.769 37.4932 146.769 38.5049C146.769 39.5167 147.023 40.3635 147.531 40.999C148.038 41.6355 148.74 41.9533 149.634 41.9533Z" fill="#00AEEA"></path><path d="M158.619 33.1016H160.643C160.782 33.1016 160.893 33.2147 160.893 33.3546V34.2653C160.893 34.5145 161.209 34.6118 161.35 34.408C161.572 34.0874 161.814 33.8021 162.076 33.55C162.531 33.1137 163.115 32.895 163.828 32.895C164.191 32.895 164.519 32.9339 164.815 33.0118C164.94 33.0451 165.019 33.1683 164.999 33.2971L164.709 35.1436C164.688 35.2844 164.556 35.3789 164.416 35.353C164.323 35.3354 164.225 35.3169 164.123 35.2965C163.86 35.2455 163.597 35.2279 163.334 35.2455C163.139 35.2585 162.947 35.2983 162.763 35.3632C162.346 35.5105 161.988 35.744 161.688 36.0664C161.445 36.3277 161.252 36.6455 161.108 37.0207C160.964 37.3968 160.892 37.8138 160.892 38.2733V43.6071C160.892 43.747 160.78 43.8601 160.641 43.8601H158.617C158.479 43.8601 158.367 43.747 158.367 43.6071V33.3536C158.367 33.2137 158.479 33.1007 158.617 33.1007H158.619V33.1016Z" fill="#00AEEA"></path></svg>